<svg width="43" height="31" viewBox="0 0 43 31" fill="none" xmlns="http://www.w3.org/2000/svg">
<path d="M23.2827 27.4029C22.8269 27.6993 22.1701 28.063 21.3123 28.4941C20.4812 28.8983 19.4894 29.2486 18.3366 29.545C17.2107 29.8414 15.9775 29.9761 14.6371 29.9492C12.3584 29.9222 10.321 29.518 8.52492 28.7366C6.72879 27.9552 5.18733 26.8909 3.90055 25.5437C2.64058 24.1695 1.67549 22.6067 1.0053 20.8553C0.335099 19.0769 0 17.1908 0 15.1969C0 12.9874 0.348503 10.9665 1.04551 9.13429C1.76932 7.2751 2.77462 5.67188 4.0614 4.32464C5.34818 2.95046 6.86283 1.88614 8.60534 1.13168C10.3747 0.377227 12.3048 0 14.3959 0C16.1652 0 17.7736 0.242503 19.2213 0.72751C20.6689 1.21252 21.8887 1.76489 22.8806 2.38462L21.1917 6.3455C20.4142 5.80661 19.4491 5.29465 18.2964 4.80965C17.1705 4.32464 15.9105 4.08214 14.5165 4.08214C12.6935 4.08214 11.0047 4.56714 9.44979 5.53716C7.92174 6.50717 6.68858 7.81399 5.7503 9.45763C4.83883 11.1013 4.38309 12.947 4.38309 14.9948C4.38309 17.0695 4.79862 18.9287 5.62966 20.5724C6.48752 22.216 7.69387 23.5093 9.24873 24.4524C10.8036 25.3955 12.6265 25.867 14.7175 25.867C16.2188 25.867 17.5324 25.638 18.6583 25.1799C19.8111 24.7219 20.7493 24.1964 21.4731 23.6036L23.2827 27.4029Z" fill="#6353B3"/>
<path d="M22.13 0.323338L31.5798 24.0482L29.1671 23.5632L38.0137 0.323338H43L30.0518 31L17.1036 0.323338H22.13Z" fill="#6353B3"/>
</svg>
