<svg width="375" height="460" viewBox="0 0 375 460" fill="none" xmlns="http://www.w3.org/2000/svg">
<g filter="url(#filter0_d_240_239)">
<rect x="62" y="100" width="252" height="252" rx="6" fill="white"/>
</g>
<path d="M196.335 260.324C194.332 261.626 191.446 263.223 187.675 265.116C184.022 266.891 179.663 268.429 174.596 269.73C169.647 271.032 164.227 271.623 158.335 271.505C148.32 271.387 139.365 269.612 131.47 266.181C123.575 262.75 116.8 258.076 111.144 252.161C105.606 246.127 101.364 239.265 98.4186 231.574C95.4729 223.766 94 215.484 94 206.729C94 197.027 95.5318 188.153 98.5954 180.108C101.777 171.945 106.195 164.905 111.851 158.989C117.507 152.955 124.165 148.282 131.823 144.969C139.6 141.656 148.084 140 157.275 140C165.052 140 172.121 141.065 178.484 143.194C184.847 145.324 190.208 147.75 194.568 150.471L187.145 167.863C183.728 165.496 179.486 163.249 174.419 161.119C169.47 158.989 163.932 157.924 157.805 157.924C149.793 157.924 142.369 160.054 135.535 164.313C128.819 168.573 123.399 174.311 119.275 181.528C115.268 188.745 113.265 196.849 113.265 205.841C113.265 214.951 115.092 223.115 118.744 230.332C122.515 237.549 127.817 243.228 134.651 247.369C141.486 251.51 149.498 253.581 158.689 253.581C165.287 253.581 171.061 252.575 176.01 250.564C181.076 248.552 185.201 246.245 188.382 243.642L196.335 260.324Z" fill="#6353B3"/>
<path d="M191.269 141.42L232.804 245.594L222.2 243.465L261.084 141.42H283L226.088 276.119L169.176 141.42H191.269Z" fill="#6353B3"/>
<path d="M102.53 310.048C102.363 310.157 102.122 310.291 101.808 310.45C101.504 310.599 101.14 310.728 100.718 310.837C100.305 310.946 99.8535 310.996 99.3625 310.986C98.5277 310.976 97.7812 310.827 97.1232 310.539C96.4652 310.251 95.9004 309.859 95.429 309.362C94.9674 308.856 94.6138 308.28 94.3683 307.635C94.1228 306.979 94 306.284 94 305.55C94 304.735 94.1277 303.991 94.383 303.315C94.6482 302.63 95.0165 302.04 95.4879 301.543C95.9594 301.037 96.5143 300.644 97.1527 300.366C97.8009 300.088 98.508 299.949 99.2741 299.949C99.9223 299.949 100.512 300.039 101.042 300.218C101.572 300.396 102.019 300.6 102.383 300.828L101.764 302.288C101.479 302.089 101.125 301.901 100.703 301.722C100.291 301.543 99.829 301.454 99.3183 301.454C98.6504 301.454 98.0317 301.632 97.462 301.99C96.9022 302.347 96.4504 302.829 96.1067 303.435C95.7728 304.04 95.6058 304.72 95.6058 305.475C95.6058 306.24 95.758 306.925 96.0625 307.53C96.3768 308.136 96.8187 308.613 97.3884 308.96C97.958 309.308 98.6259 309.482 99.3919 309.482C99.9419 309.482 100.423 309.397 100.836 309.228C101.258 309.06 101.602 308.866 101.867 308.647L102.53 310.048Z" fill="#6353B3"/>
<path d="M108.487 307.009C108.487 307.466 108.595 307.883 108.811 308.26C109.037 308.628 109.341 308.921 109.724 309.139C110.107 309.357 110.529 309.467 110.991 309.467C111.482 309.467 111.919 309.357 112.302 309.139C112.685 308.921 112.985 308.628 113.201 308.26C113.427 307.883 113.54 307.466 113.54 307.009V300.069H115.057V307.054C115.057 307.838 114.875 308.528 114.512 309.124C114.149 309.71 113.658 310.167 113.039 310.494C112.43 310.822 111.747 310.986 110.991 310.986C110.235 310.986 109.547 310.822 108.929 310.494C108.32 310.167 107.833 309.71 107.47 309.124C107.116 308.528 106.94 307.838 106.94 307.054V300.069H108.487V307.009Z" fill="#6353B3"/>
<path d="M123.047 300.069C123.793 300.069 124.456 300.203 125.036 300.471C125.615 300.729 126.067 301.111 126.391 301.618C126.725 302.114 126.892 302.73 126.892 303.464C126.892 303.891 126.828 304.313 126.701 304.73C126.573 305.147 126.367 305.525 126.082 305.862C125.807 306.2 125.434 306.473 124.962 306.681C124.501 306.88 123.931 306.979 123.253 306.979H121.677V310.867H120.145V300.069H123.047ZM123.224 305.475C123.774 305.475 124.196 305.371 124.491 305.162C124.795 304.944 125.006 304.686 125.124 304.388C125.242 304.08 125.301 303.792 125.301 303.524C125.301 303.325 125.267 303.117 125.198 302.898C125.129 302.67 125.016 302.457 124.859 302.258C124.712 302.049 124.51 301.886 124.255 301.766C124 301.637 123.685 301.573 123.312 301.573H121.677V305.475H123.224ZM125.021 306.398L127.791 310.867H125.993L123.18 306.428L125.021 306.398Z" fill="#6353B3"/>
<path d="M135.04 300.069C135.786 300.069 136.449 300.203 137.029 300.471C137.608 300.729 138.06 301.111 138.384 301.618C138.718 302.114 138.885 302.73 138.885 303.464C138.885 303.891 138.821 304.313 138.693 304.73C138.566 305.147 138.36 305.525 138.075 305.862C137.8 306.2 137.426 306.473 136.955 306.681C136.493 306.88 135.924 306.979 135.246 306.979H133.67V310.867H132.138V300.069H135.04ZM135.217 305.475C135.767 305.475 136.189 305.371 136.484 305.162C136.788 304.944 136.999 304.686 137.117 304.388C137.235 304.08 137.294 303.792 137.294 303.524C137.294 303.325 137.26 303.117 137.191 302.898C137.122 302.67 137.009 302.457 136.852 302.258C136.705 302.049 136.503 301.886 136.248 301.766C135.993 301.637 135.678 301.573 135.305 301.573H133.67V305.475H135.217ZM137.014 306.398L139.784 310.867H137.986L135.172 306.428L137.014 306.398Z" fill="#6353B3"/>
<path d="M144.131 300.069H145.663V310.867H144.131V300.069Z" fill="#6353B3"/>
<path d="M158.768 310.048C158.601 310.157 158.36 310.291 158.046 310.45C157.742 310.599 157.378 310.728 156.956 310.837C156.543 310.946 156.092 310.996 155.6 310.986C154.766 310.976 154.019 310.827 153.361 310.539C152.703 310.251 152.138 309.859 151.667 309.362C151.205 308.856 150.852 308.28 150.606 307.635C150.361 306.979 150.238 306.284 150.238 305.55C150.238 304.735 150.366 303.991 150.621 303.315C150.886 302.63 151.254 302.04 151.726 301.543C152.197 301.037 152.752 300.644 153.391 300.366C154.039 300.088 154.746 299.949 155.512 299.949C156.16 299.949 156.75 300.039 157.28 300.218C157.81 300.396 158.257 300.6 158.621 300.828L158.002 302.288C157.717 302.089 157.363 301.901 156.941 301.722C156.529 301.543 156.067 301.454 155.556 301.454C154.888 301.454 154.27 301.632 153.7 301.99C153.14 302.347 152.688 302.829 152.345 303.435C152.011 304.04 151.844 304.72 151.844 305.475C151.844 306.24 151.996 306.925 152.3 307.53C152.615 308.136 153.057 308.613 153.626 308.96C154.196 309.308 154.864 309.482 155.63 309.482C156.18 309.482 156.661 309.397 157.074 309.228C157.496 309.06 157.84 308.866 158.105 308.647L158.768 310.048Z" fill="#6353B3"/>
<path d="M164.725 307.009C164.725 307.466 164.833 307.883 165.049 308.26C165.275 308.628 165.579 308.921 165.962 309.139C166.345 309.357 166.767 309.467 167.229 309.467C167.72 309.467 168.157 309.357 168.54 309.139C168.923 308.921 169.223 308.628 169.439 308.26C169.665 307.883 169.778 307.466 169.778 307.009V300.069H171.295V307.054C171.295 307.838 171.113 308.528 170.75 309.124C170.387 309.71 169.896 310.167 169.277 310.494C168.668 310.822 167.985 310.986 167.229 310.986C166.473 310.986 165.785 310.822 165.167 310.494C164.558 310.167 164.071 309.71 163.708 309.124C163.354 308.528 163.178 307.838 163.178 307.054V300.069H164.725V307.009Z" fill="#6353B3"/>
<path d="M176.383 300.069H177.915V309.362H183.277V310.867H176.383V300.069Z" fill="#6353B3"/>
<path d="M186.936 305.475C186.936 304.73 187.073 304.025 187.348 303.36C187.633 302.695 188.026 302.109 188.527 301.603C189.028 301.086 189.607 300.684 190.265 300.396C190.923 300.098 191.626 299.949 192.372 299.949C193.118 299.949 193.821 300.098 194.479 300.396C195.146 300.684 195.731 301.086 196.232 301.603C196.742 302.109 197.14 302.695 197.425 303.36C197.71 304.025 197.852 304.73 197.852 305.475C197.852 306.24 197.71 306.955 197.425 307.62C197.14 308.285 196.742 308.871 196.232 309.377C195.731 309.884 195.146 310.281 194.479 310.569C193.821 310.847 193.118 310.986 192.372 310.986C191.626 310.986 190.923 310.847 190.265 310.569C189.607 310.281 189.028 309.889 188.527 309.392C188.026 308.896 187.633 308.315 187.348 307.65C187.073 306.974 186.936 306.25 186.936 305.475ZM188.527 305.49C188.527 306.225 188.699 306.895 189.043 307.501C189.386 308.106 189.853 308.588 190.442 308.945C191.031 309.303 191.689 309.482 192.416 309.482C193.133 309.482 193.781 309.303 194.361 308.945C194.94 308.588 195.402 308.106 195.746 307.501C196.089 306.895 196.261 306.22 196.261 305.475C196.261 304.73 196.084 304.055 195.731 303.45C195.387 302.834 194.921 302.347 194.331 301.99C193.752 301.632 193.104 301.454 192.387 301.454C191.66 301.454 191.002 301.637 190.413 302.005C189.833 302.362 189.372 302.849 189.028 303.464C188.694 304.07 188.527 304.745 188.527 305.49Z" fill="#6353B3"/>
<path d="M207.448 300.069L210.91 308.811L210.026 308.633L213.267 300.069H215.094L210.35 311.373L205.606 300.069H207.448Z" fill="#6353B3"/>
<path d="M219.391 300.069H220.923V310.867H219.391V300.069Z" fill="#6353B3"/>
<path d="M229.063 300.069C229.81 300.069 230.473 300.203 231.052 300.471C231.632 300.729 232.083 301.111 232.408 301.618C232.741 302.114 232.908 302.73 232.908 303.464C232.908 303.891 232.845 304.313 232.717 304.73C232.589 305.147 232.383 305.525 232.098 305.862C231.823 306.2 231.45 306.473 230.979 306.681C230.517 306.88 229.947 306.979 229.27 306.979H227.693V310.867H226.161V300.069H229.063ZM229.24 305.475C229.79 305.475 230.212 305.371 230.507 305.162C230.812 304.944 231.023 304.686 231.141 304.388C231.258 304.08 231.317 303.792 231.317 303.524C231.317 303.325 231.283 303.117 231.214 302.898C231.145 302.67 231.033 302.457 230.875 302.258C230.728 302.049 230.527 301.886 230.271 301.766C230.016 301.637 229.702 301.573 229.329 301.573H227.693V305.475H229.24ZM231.037 306.398L233.807 310.867H232.01L229.196 306.428L231.037 306.398Z" fill="#6353B3"/>
<path d="M237.215 300.069H244.33V301.573H241.502V310.867H239.955V301.573H237.215V300.069Z" fill="#6353B3"/>
<path d="M250.165 307.009C250.165 307.466 250.273 307.883 250.489 308.26C250.715 308.628 251.019 308.921 251.402 309.139C251.785 309.357 252.208 309.467 252.669 309.467C253.16 309.467 253.597 309.357 253.98 309.139C254.363 308.921 254.663 308.628 254.879 308.26C255.105 307.883 255.218 307.466 255.218 307.009V300.069H256.735V307.054C256.735 307.838 256.554 308.528 256.19 309.124C255.827 309.71 255.336 310.167 254.717 310.494C254.108 310.822 253.426 310.986 252.669 310.986C251.913 310.986 251.226 310.822 250.607 310.494C249.998 310.167 249.512 309.71 249.148 309.124C248.795 308.528 248.618 307.838 248.618 307.054V300.069H250.165V307.009Z" fill="#6353B3"/>
<path d="M260.517 310.867L265.216 299.622H265.305L270.004 310.867H268.222L264.804 302.064L265.909 301.335L262.049 310.867H260.517ZM263.36 306.816H267.19L267.721 308.156H262.903L263.36 306.816Z" fill="#6353B3"/>
<path d="M274.147 300.069H275.679V309.362H281.041V310.867H274.147V300.069Z" fill="#6353B3"/>
<defs>
<filter id="filter0_d_240_239" x="-42" y="0" width="460" height="460" filterUnits="userSpaceOnUse" color-interpolation-filters="sRGB">
<feFlood flood-opacity="0" result="BackgroundImageFix"/>
<feColorMatrix in="SourceAlpha" type="matrix" values="0 0 0 0 0 0 0 0 0 0 0 0 0 0 0 0 0 0 127 0" result="hardAlpha"/>
<feOffset dy="4"/>
<feGaussianBlur stdDeviation="52"/>
<feComposite in2="hardAlpha" operator="out"/>
<feColorMatrix type="matrix" values="0 0 0 0 0 0 0 0 0 0 0 0 0 0 0 0 0 0 0.25 0"/>
<feBlend mode="normal" in2="BackgroundImageFix" result="effect1_dropShadow_240_239"/>
<feBlend mode="normal" in="SourceGraphic" in2="effect1_dropShadow_240_239" result="shape"/>
</filter>
</defs>
</svg>
